<?xml version="1.0" encoding="UTF-8"?>
<svg id="Capa_1" data-name="Capa 1" xmlns="http://www.w3.org/2000/svg" viewBox="0 0 919.77 156.18">
  <defs>
    <style>
      .cls-1 {
        fill: #e2dedb;
      }
    </style>
  </defs>
  <path class="cls-1" d="M98.17,45.84c-3.15-3.57-6.94-6.41-11.24-8.42-4.35-2.03-9-3.11-13.83-3.2h-.34c-4.95,.05-9.71,1.13-14.16,3.2-4.31,2.01-8.09,4.84-11.24,8.42-5.54,6.27-8.58,14.33-8.58,22.71s3.05,16.44,8.58,22.7c3.15,3.57,6.94,6.41,11.24,8.42,4.45,2.08,9.21,3.16,14.16,3.2h0c4.95-.05,9.71-1.13,14.16-3.2,4.3-2.01,8.09-4.84,11.24-8.42,5.54-6.27,8.58-14.33,8.58-22.7s-3.05-16.44-8.58-22.71h0Zm-.42,31.62c-.1,6.63-2.74,12.85-7.43,17.54-4.69,4.68-10.93,7.31-17.55,7.4-6.63-.09-12.86-2.72-17.55-7.4-4.69-4.68-7.34-10.91-7.43-17.53v-17.83c.1-6.62,2.74-12.85,7.43-17.54,4.69-4.68,10.93-7.31,17.55-7.4,6.63,.09,12.86,2.72,17.55,7.4,4.69,4.68,7.33,10.91,7.43,17.53v17.83Z"/>
  <path class="cls-1" d="M165.04,37.42c-4.35-2.03-9-3.11-13.83-3.2h-.34c-4.95,.05-9.71,1.13-14.16,3.2-4.31,2.01-8.09,4.84-11.24,8.42-5.54,6.27-8.58,14.33-8.58,22.71s3.05,16.44,8.58,22.7c3.15,3.57,6.94,6.41,11.24,8.42,4.45,2.08,9.21,3.16,14.16,3.2h0c4.95-.05,9.71-1.13,14.16-3.2,4.3-2.01,8.09-4.84,11.24-8.42,5.54-6.27,8.58-14.33,8.58-22.7s-3.05-16.44-8.58-22.71c-3.15-3.57-6.94-6.41-11.24-8.42h0Zm10.82,40.03c-.1,6.63-2.74,12.85-7.43,17.54-4.69,4.68-10.93,7.31-17.55,7.4-6.63-.09-12.86-2.72-17.55-7.4-4.69-4.68-7.33-10.91-7.43-17.53v-17.83c.1-6.62,2.74-12.85,7.43-17.54,4.69-4.68,10.93-7.31,17.55-7.4,6.63,.09,12.86,2.72,17.55,7.4s7.33,10.91,7.43,17.53v17.83Z"/>
  <path class="cls-1" d="M263.65,0l-12.25,5.51,.2,.44,3.05-1.37V55.02c-.98-4.98-3.41-9.56-7.08-13.24-4.88-4.88-11.36-7.56-18.25-7.56h-.34c-4.95,.05-9.71,1.13-14.16,3.2-4.31,2.01-8.09,4.84-11.24,8.42-5.54,6.27-8.58,14.33-8.58,22.7s3.05,16.44,8.58,22.71c3.15,3.57,6.94,6.41,11.24,8.42,4.45,2.08,9.21,3.16,14.16,3.2h.34c6.89,0,13.38-2.68,18.25-7.56,3.67-3.67,6.1-8.25,7.08-13.24v20.8h12.17v-.48h-3.17V0h0Zm-9,77.34c-.15,13.84-11.45,25.05-25.33,25.05h-.34c-6.63-.09-12.86-2.72-17.55-7.4-4.69-4.68-7.33-10.91-7.43-17.53v-17.83c.1-6.62,2.74-12.85,7.43-17.54,4.69-4.68,10.93-7.31,17.55-7.4h.34c13.88,0,25.18,11.21,25.33,25.05v17.59h0Z"/>
  <path class="cls-1" d="M368.99,69.29c-3.13,2.82-4.86,6.65-4.86,10.77,0,1.99-.3,3.9-.75,5.64l-30.63-34.88c-1.23-1.39-2.63-2.97-2.99-5.04-.38-2.15-.24-4.98,1.27-6.51,0,0,0-.01,.02-.02,3.35-3.35,7.81-5.25,12.54-5.33h.17c3.37,.03,6.54,1.9,8.93,5.26,2.4,3.37,3.72,7.86,3.72,12.62v.16h6.08v-.16c-.09-4.82-2.02-9.35-5.44-12.77-3.55-3.55-8.27-5.48-13.29-5.43h-.18c-4.82,.09-9.35,2.02-12.76,5.43h0l-.02,.02c-1.84,1.85-3.27,3.61-4.21,6.21l-.04,.12c-.59,1.65-.61,3.47-.05,5.4,.49,1.7,1.39,3.4,2.64,4.92,1.13,1.28,4.59,5.23,9.07,10.33l-6.12,4.48h0c-.9,.73-1.68,1.65-2.38,2.58-1.98,2.59-3.23,5.69-3.62,8.96-.61,5.16,.98,10.38,4.38,14.33l.21,.24c3.47,3.89,8.42,6.17,13.62,6.25h.28c4.38,0,8.61-1.56,11.94-4.41,0,0,1.77-1.54,3.33-3.86,.07-.1,.65-.97,1.38-2.37,4.61,5.25,8.13,9.24,9.08,10.31h-1.94v.33h12.12v-.33h-2.3l-14.54-16.55c.47-1.8,.81-3.82,.81-5.94,0-2.54,1.06-4.85,2.98-6.51,1.85-1.6,4.33-2.48,6.97-2.48h6.24v-6.07h-.16c-4.34,0-8.43,1.52-11.5,4.29h0Zm-9.43,25.17c-.3,.5-1.95,2.6-3.27,3.76-.16,.14-.33,.28-.49,.42-2.12,1.61-4.73,2.47-7.41,2.43-3.36-.05-6.58-1.52-8.84-4.03l-4.26-4.87-4.04-4.62c-2.19-2.57-3.21-5.96-2.82-9.3,.2-1.73,.77-3.35,1.67-4.82,.6-.98,1.34-1.98,2.2-2.65l4.04-2.95,2.09-1.53c6.78,7.72,15.81,18,22.57,25.69-.78,1.52-1.43,2.47-1.43,2.47h-.01Z"/>
  <polygon class="cls-1" points="533.86 0 521.61 5.51 521.81 5.95 524.86 4.58 524.86 102.4 521.69 102.4 521.69 102.88 537.03 102.88 537.03 102.4 533.86 102.4 533.86 0"/>
  <path class="cls-1" d="M674.04,55.77c0-3.45-.79-6.74-2.35-9.79-1.49-2.91-3.66-5.48-6.27-7.45-3.67-2.76-8.04-4.24-12.63-4.3h-.3c-21.4,.19-29.42,20.36-35.86,36.59-2.07,5.23-4.03,10.17-6.22,13.84h0c-1.2,2.19-2.65,4.25-4.3,6.12-3.11,3.52-6.84,6.32-11.08,8.3-4.39,2.05-9.09,3.11-13.96,3.16-6.63-.09-12.86-2.71-17.55-7.4-4.69-4.68-7.33-10.91-7.44-17.53v-17.59h57.87l-.08-.3c-1.36-5.04-3.92-9.79-7.4-13.73-3.15-3.57-6.94-6.41-11.24-8.42-4.35-2.03-8.99-3.11-13.82-3.2h-.35c-4.95,.05-9.71,1.12-14.16,3.2-4.31,2.01-8.09,4.84-11.24,8.42-5.53,6.27-8.58,14.33-8.58,22.7s3.05,16.44,8.58,22.71c3.16,3.57,6.94,6.41,11.24,8.42,4.45,2.08,9.22,3.16,14.16,3.2h.34c4.83-.09,9.48-1.17,13.83-3.2,4.3-2.01,8.09-4.84,11.24-8.42,1.68-1.9,3.14-3.98,4.36-6.2,2.2-3.7,4.17-8.66,6.25-13.91,3.21-8.08,6.85-17.25,12.32-24.29,6.27-8.08,13.92-12,23.39-12,2.63,.06,5.13,.93,7.24,2.51,3.09,2.32,4.91,5.85,5.02,9.7v.67c-.1,3.85-1.93,7.38-5.02,9.7-2.19,1.64-4.79,2.51-7.53,2.51h-9.21c-4.59,.05-8.97,1.54-12.63,4.3-2.62,1.96-4.79,4.54-6.27,7.45-1.55,3.05-2.34,6.34-2.34,9.79s.79,6.74,2.34,9.79c1.48,2.91,3.65,5.48,6.27,7.45,3.67,2.76,8.04,4.24,12.63,4.3h.3c4.79,0,9.34-1.52,13.16-4.39,2.66-2,4.87-4.62,6.38-7.58,.87-1.71,1.51-3.51,1.91-5.36v17.33h12.17v-.48h-3.16V55.76h0Zm-110.53-13.81c4.69-4.68,10.93-7.31,17.55-7.4,6.62,.09,12.85,2.72,17.55,7.4,4.63,4.63,7.27,10.76,7.43,17.29h-49.96c.16-6.53,2.79-12.66,7.43-17.29h0Zm101.52,39.03c0,3.42-.79,6.69-2.34,9.72-1.48,2.9-3.64,5.46-6.25,7.42-3.73,2.8-8.19,4.29-12.87,4.29h-.29c-2.63-.06-5.14-.93-7.24-2.51-3.08-2.32-4.91-5.86-5.02-9.7v-17.7c.1-3.85,1.93-7.39,5.02-9.7,2.1-1.58,4.61-2.45,7.24-2.51h9.2c2.85,0,5.55-.89,7.82-2.6,2.32-1.75,3.96-4.16,4.73-6.88v30.18h0Z"/>
  <path class="cls-1" d="M726.06,68.54c-.61-.8-1.28-1.57-2.01-2.29-2.31-2.3-6.3-4.44-9.53-6.06,0,0-8.72-4.19-8.75-4.2h-.01c-7.36-3.56-14.26-7.4-14.98-11.41-.24-1.38,.25-2.68,1.52-4l.15-.15c3.49-3.47,8.45-5.51,13.95-5.72,5.26-.21,10.59,1.31,14.61,4.15,.19,.13,.38,.27,.6,.44,.73,.56,1.44,1.18,2.1,1.84,3.82,3.8,6.01,8.86,6.16,14.23h.48v-20.92h-.48c0,2.99-2.27,5.25-5.27,5.25-.96,0-1.9-.27-2.71-.79-.22-.17-.42-.31-.6-.44-4.11-2.91-9.54-4.45-14.91-4.24-5.63,.22-10.69,2.31-14.27,5.86-.05,.05-.09,.1-.14,.14h-.01c-1.83,1.87-3.02,3.75-3.89,6.11-.9,2.33-1.04,4.99-.37,7.32,.76,2.65,2.46,4.7,4.91,5.93,0,0,27.31,13.11,27.76,13.36,1.22,.67,2.35,1.51,3.34,2.5,2.73,2.72,4.27,6.35,4.32,10.2,.05,3.84-1.38,7.5-4.02,10.29,0,0-.22,.23-.3,.31-3.59,3.58-8.36,5.74-13.42,6.09-5.01,.35-9.98-1.09-13.99-4.04h-.01c-.23-.18-.45-.36-.67-.53-.59-.47-1.16-.98-1.7-1.52-3.98-3.96-6.17-9.23-6.17-14.83h-.48v21.21h.48c0-2.89,2.24-5.25,4.98-5.25,.92,0,1.82,.27,2.6,.77,.21,.17,.43,.34,.66,.51l.04,.03c3.7,2.72,8.19,4.18,12.79,4.18,.5,0,1-.02,1.51-.05,5.18-.36,10.05-2.57,13.73-6.23,.1-.1,.21-.21,.31-.32,4.95-5.13,7.06-12.28,5.65-19.12-.65-3.13-1.98-6.03-3.95-8.62h0Z"/>
  <path class="cls-1" d="M774.58,34.7h3.17v63.46c-3.65,2.71-7.98,4.14-12.55,4.14h-.29c-2.63-.06-5.13-.93-7.24-2.51-3.08-2.32-4.91-5.85-5.01-9.7V34.69h3.16v-.48h-15.34v.48h3.17v46.78c.04,3.36,.82,6.57,2.35,9.55,1.49,2.91,3.65,5.48,6.27,7.45,3.67,2.76,8.03,4.25,12.63,4.3h.29c4.55,0,8.87-1.39,12.55-4.03h0v4.12h12.17v-.48h-3.16V34.68h3.16v-.48h-15.34v.5Z"/>
  <path class="cls-1" d="M837.65,38.53c-3.67-2.76-8.04-4.25-12.63-4.31h-.3c-4.55,0-8.87,1.39-12.55,4.03h0v-4.03h-12.17v.48h3.17V102.4h-3.17v.48h15.34v-.48h-3.17V38.85c3.65-2.71,7.98-4.14,12.55-4.14h.29c2.63,.06,5.14,.92,7.24,2.51,3.08,2.32,4.91,5.85,5.01,9.7v9.09h9v-.24c0-3.45-.79-6.74-2.35-9.79-1.48-2.91-3.65-5.48-6.27-7.45h0Z"/>
  <path class="cls-1" d="M495.28,37.07c-4.41-2.06-9.14-3.13-14.04-3.17h-.34c-6.83,0-13.26,2.66-18.09,7.49-3.64,3.64-6.05,8.18-7.01,13.12v-20.61h-8.93v.48h0v121.31h-.01v.48h12.1s0-.5,0-.5h-3.16V81.35c.97,4.94,3.37,9.48,7.01,13.12,4.83,4.83,11.26,7.49,18.09,7.49h.34c4.9-.05,9.63-1.12,14.04-3.18,4.27-1.99,8.02-4.8,11.14-8.34,5.49-6.22,8.51-14.21,8.51-22.51s-3.02-16.29-8.51-22.51c-3.13-3.54-6.87-6.35-11.14-8.34h0Zm11.75,39.68c-.1,6.57-3.74,12.74-8.39,17.38s-10.83,6.23-17.4,6.31h-.34c-13.74,0-24.94-10.08-25.1-23.78v-17.51c.17-13.7,11.36-23.78,25.1-23.78h.34c6.57,.09,12.75,1.67,17.4,6.31s8.29,10.82,8.39,17.38v17.69Z"/>
  <path class="cls-1" d="M42.38,26.33h0l.04,8,8.91-.04-.04-7.94h.04v-.24c0-7.35-3.12-14.37-8.55-19.27C38.14,2.65,32.15,.32,25.92,.26h-.5c-6.05,.06-11.87,2.27-16.46,6.23l-.4,.35c-.68,.61-1.32,1.26-1.93,1.93-.15,.17-.3,.34-.45,.51-.73,.86-1.41,1.77-2.02,2.72-.37,.57-.71,1.15-1.03,1.74C1.1,17.5,0,21.75,0,26.11v13.93H0v.51H0v61.11H0v.51H0v.26H8.95v-.26h3.17v-.51h-3.17V40.55h13.82v-.51H8.95V17.34c.06-4.7,2.09-9.19,5.57-12.32C17.52,2.31,21.39,.79,25.42,.73h.48c4.03,.06,7.9,1.58,10.9,4.29,3.48,3.13,5.51,7.62,5.57,12.32v9h0Z"/>
  <path class="cls-1" d="M915.03,84.66s-2.7,4.32-4.26,5.74c-3.42,3.1-6.07,5.89-10.24,7.84-4.31,2.01-8.93,3.06-13.72,3.1-6.51-.09-12.63-2.67-17.24-7.27-4.61-4.6-7.21-10.72-7.31-17.23v-17.28h56.87l-.08-.3c-1.34-4.96-3.85-9.62-7.27-13.49-3.1-3.51-6.82-6.3-11.05-8.27-4.27-2-8.84-3.05-13.58-3.15h-.34c-4.86,.04-9.55,1.1-13.92,3.15-4.23,1.98-7.95,4.76-11.05,8.27-5.44,6.16-8.43,14.08-8.43,22.31s2.99,16.15,8.43,22.31c3.1,3.51,6.82,6.29,11.05,8.27,4.37,2.04,9.06,3.1,13.92,3.15h.33c4.74-.09,9.32-1.15,13.59-3.15,4.23-1.98,7.95-4.76,11.05-8.27,1.65-1.87,3.09-3.91,4.28-6.09,2.97-5.09,4.12-11.48,3.58-18.99l-3.81,.5s4.75,9.94-.78,18.83l-.02,.02Zm-45.47-42.56c4.61-4.6,10.74-7.18,17.25-7.27,6.51,.09,12.63,2.67,17.24,7.27,4.55,4.55,7.14,10.57,7.3,16.99h-49.09c.16-6.42,2.74-12.45,7.3-16.99h0Z"/>
</svg>