<?xml version="1.0" encoding="UTF-8"?><svg id="Layer_1" xmlns="http://www.w3.org/2000/svg" viewBox="0 0 1080 1080"><defs><style>.cls-1{fill:#f0efed;}</style></defs><path d="m825.22,530.8c-.16,153.51-125.65,278.56-279.19,278.21-153.69-.35-278.36-125.56-278.1-279.29.26-153.27,125.48-278.04,278.88-277.9,153.64.14,278.57,125.32,278.41,278.98Zm-337.37-.34c0,24.69-.01,49.38,0,74.07,0,11.71,6.02,15.25,16.09,9.44,42.91-24.74,85.82-49.49,128.71-74.26,10.16-5.87,10.11-12.76-.11-18.65-42.9-24.76-85.8-49.52-128.72-74.26-9.84-5.67-15.96-2.22-15.98,9-.02,24.89,0,49.77,0,74.66Z"/><path class="cls-1" d="m487.85,530.47c0-24.89-.02-49.77,0-74.66.01-11.22,6.14-14.67,15.98-9,42.91,24.74,85.82,49.5,128.72,74.26,10.21,5.9,10.27,12.79.11,18.65-42.89,24.77-85.8,49.52-128.71,74.26-10.07,5.8-16.08,2.26-16.09-9.44-.01-24.69,0-49.38,0-74.07Z"/></svg>